<svg xmlns="http://www.w3.org/2000/svg" viewBox="0 0 200 34.15">
  <defs>
    <style>.cls-1{fill:#fff;}.cls-2{fill:#fd0;}</style>
  </defs>
  <g id="Layer_2" data-name="Layer 2">
    <g id="Layer_1-2" data-name="Layer 1">
      <path class="cls-1"
        d="M19.75.42v4H10.32C8.1,4.45,6.51,5,5.51,6.19S4,9.26,4,11.91s.48,4.5,1.49,5.67,2.59,1.74,4.87,1.74h3.81a3,3,0,0,0,2.43-.9,3.57,3.57,0,0,0,.74-2.33,3.17,3.17,0,0,0-.68-2.17,2.67,2.67,0,0,0-2.12-.74H9.48V9.69H15a5.56,5.56,0,0,1,4.55,1.74A7,7,0,0,1,21,16.15a9.86,9.86,0,0,1-.37,2.8,6.16,6.16,0,0,1-1.27,2.28,6.32,6.32,0,0,1-2.23,1.53,8.47,8.47,0,0,1-3.28.59H10.32c-3.33,0-5.87-1-7.67-2.81S0,15.78,0,12,.9,5.24,2.65,3.34,7,.53,10.32.53h9.43Z" />
      <path class="cls-1"
        d="M26.89,23.29H22.5L30.55,3A4.4,4.4,0,0,1,32.35.69a6.27,6.27,0,0,1,3-.64,6.11,6.11,0,0,1,3,.64A4.26,4.26,0,0,1,40.13,3l7.73,20.33h-4.5l-7-18.37a1.12,1.12,0,0,0-1.11-.79,1.19,1.19,0,0,0-1.17.79Z" />
      <path class="cls-1"
        d="M55.11,23.29h-4V5.13a5.15,5.15,0,0,1,1.37-3.7A5.45,5.45,0,0,1,56.64,0a5.84,5.84,0,0,1,3.87,1.16,5.82,5.82,0,0,1,1.9,3.34l3.23,14a1.46,1.46,0,0,0,1.54,1.27,1.49,1.49,0,0,0,1.53-1.27l3.23-14a6.06,6.06,0,0,1,1.8-3.34A5.58,5.58,0,0,1,77.55,0a5.43,5.43,0,0,1,4.13,1.43,5.16,5.16,0,0,1,1.38,3.7V23.29h-4V5.35a1.4,1.4,0,0,0-.42-1.06,1.67,1.67,0,0,0-1.22-.37,1.45,1.45,0,0,0-1.06.32,1.66,1.66,0,0,0-.53.9l-3.28,14a6.6,6.6,0,0,1-1.8,3.44,5.07,5.07,0,0,1-3.6,1.17,5.26,5.26,0,0,1-3.71-1.17,6.33,6.33,0,0,1-1.8-3.44l-3.23-14a1.6,1.6,0,0,0-.53-.9,1.61,1.61,0,0,0-1-.32,1.75,1.75,0,0,0-1.22.37,1.45,1.45,0,0,0-.43,1.06V23.29Z" />
      <path class="cls-1" d="M92.59.42V23.29h-4V.42Z" />
      <path class="cls-1"
        d="M102,23.29h-4V5a5,5,0,0,1,1.27-3.6,6.4,6.4,0,0,1,7.57-.27,7.33,7.33,0,0,1,2,3.13l6.67,14.61a3.54,3.54,0,0,0,.53.68,1.53,1.53,0,0,0,.9.27,1.27,1.27,0,0,0,1.38-1.32V.37h4V18.69a4.92,4.92,0,0,1-1.32,3.65,5.23,5.23,0,0,1-4,1.38,7.74,7.74,0,0,1-2.06-.27,4.5,4.5,0,0,1-1.54-.85,5.55,5.55,0,0,1-1.11-1.32,9.05,9.05,0,0,1-.8-1.75L104.76,4.92a1.57,1.57,0,0,0-1.42-1,1.34,1.34,0,0,0-1.06.37,1.24,1.24,0,0,0-.37,1v18Z" />
      <path class="cls-1"
        d="M146.69.42v4h-9.42c-2.23,0-3.81.58-4.82,1.74S131,9.26,131,11.91s.48,4.5,1.48,5.67,2.59,1.74,4.87,1.74h3.81a3.07,3.07,0,0,0,2.44-.9,3.63,3.63,0,0,0,.74-2.33,3.13,3.13,0,0,0-.69-2.17,2.66,2.66,0,0,0-2.12-.74h-5.08V9.69h5.51a5.58,5.58,0,0,1,4.55,1.74A7,7,0,0,1,148,16.15a9.52,9.52,0,0,1-.37,2.8,6,6,0,0,1-1.27,2.28,6.19,6.19,0,0,1-2.22,1.53,8.47,8.47,0,0,1-3.28.59h-3.55c-3.34,0-5.88-1-7.68-2.81S127,15.78,127,12s.9-6.72,2.64-8.62S133.93.53,137.27.53h9.42Z" />
      <path class="cls-2"
        d="M165.11.42c3.34,0,5.88,1,7.68,2.81s2.65,4.76,2.65,8.63a14.25,14.25,0,0,1-1.33,6.67,8,8,0,0,1-3.91,3.76l2.17,4.55h-4l-1.74-3.65a3.78,3.78,0,0,1-.75,0H162c-3.33,0-5.88-.95-7.68-2.81s-2.64-4.76-2.64-8.57.9-6.72,2.64-8.63S158.66.42,162,.42Zm1.33,14,2,4.24a4.59,4.59,0,0,0,2.28-2.39,11.53,11.53,0,0,0,.68-4.39c0-2.59-.47-4.5-1.48-5.72s-2.59-1.74-4.82-1.74H162c-2.22,0-3.81.58-4.82,1.74s-1.48,3.07-1.48,5.72.48,4.5,1.48,5.67,2.6,1.74,4.87,1.74h2.7l-2.33-4.87Z" />
      <path class="cls-2"
        d="M194.44.42a5.62,5.62,0,0,1,4.13,1.33A4.73,4.73,0,0,1,200,5.45a5.84,5.84,0,0,1-.9,3.28,6.29,6.29,0,0,1-2.75,2.07l-12.5,5.29a1.89,1.89,0,0,0-1.16,1.7,1.43,1.43,0,0,0,.42,1.06,1.77,1.77,0,0,0,1.27.42h15.09v4H184.12A5.62,5.62,0,0,1,180,22a4.74,4.74,0,0,1-1.38-3.71,5.86,5.86,0,0,1,.9-3.28,6.18,6.18,0,0,1,2.76-2.06l12.38-5.3a1.69,1.69,0,0,0,1.17-1.69,1.37,1.37,0,0,0-.43-1.06,1.89,1.89,0,0,0-1.32-.42H179.41v-4Z" />
      <path class="cls-1"
        d="M198.15,34.15H111.49a1.88,1.88,0,0,1-1.86-1.86h0a1.88,1.88,0,0,1,1.86-1.85h86.66A1.88,1.88,0,0,1,200,32.29h0A1.85,1.85,0,0,1,198.15,34.15Z" />
      <path class="cls-2"
        d="M99.84,34.15h0A1.88,1.88,0,0,1,98,32.29h0a1.88,1.88,0,0,1,1.85-1.85h0a1.87,1.87,0,0,1,1.85,1.85h0A1.84,1.84,0,0,1,99.84,34.15Z" />
      <path class="cls-2"
        d="M90.58,34.15h0a1.88,1.88,0,0,1-1.86-1.86h0a1.88,1.88,0,0,1,1.86-1.85h0a1.88,1.88,0,0,1,1.85,1.85h0A1.85,1.85,0,0,1,90.58,34.15Z" />
      <path class="cls-2"
        d="M81.1,34.15h0a1.88,1.88,0,0,1-1.85-1.86h0a1.88,1.88,0,0,1,1.85-1.85h0A1.87,1.87,0,0,1,83,32.29h0A1.81,1.81,0,0,1,81.1,34.15Z" />
    </g>
  </g>
</svg>