<svg xmlns="http://www.w3.org/2000/svg" version="1.1" xmlns:xlink="http://www.w3.org/1999/xlink" xmlns:svgjs="http://svgjs.dev/svgjs" width="1000" height="623" viewBox="0 0 1000 623"><g transform="matrix(1,0,0,1,-0.6060606060606233,0.2522267206477409)"><svg viewBox="0 0 396 247" data-background-color="#a3a3a3" preserveAspectRatio="xMidYMid meet" height="623" width="1000" xmlns="http://www.w3.org/2000/svg" xmlns:xlink="http://www.w3.org/1999/xlink"><g id="tight-bounds" transform="matrix(1,0,0,1,0.2400000000000091,-0.09999999999999432)"><svg viewBox="0 0 395.52 247.2" height="247.2" width="395.52"><g><svg></svg></g><g><svg viewBox="0 0 395.52 247.2" height="247.2" width="395.52"><g transform="matrix(1,0,0,1,75.54432,74.31857337644341)"><svg viewBox="0 0 244.43135999999998 98.56285324711317" height="98.56285324711317" width="244.43135999999998"><g><svg viewBox="0 0 244.43135999999998 98.56285324711317" height="98.56285324711317" width="244.43135999999998"><g><svg viewBox="0 0 244.43135999999998 98.56285324711317" height="98.56285324711317" width="244.43135999999998"><g><svg viewBox="0 0 244.43135999999998 98.56285324711317" height="98.56285324711317" width="244.43135999999998"><g id="textblocktransform"><svg viewBox="0 0 244.43135999999998 98.56285324711317" height="98.56285324711317" width="244.43135999999998" id="textblock"><g><svg viewBox="0 0 244.43135999999998 98.56285324711317" height="98.56285324711317" width="244.43135999999998"><g transform="matrix(1,0,0,1,0,0)"><svg width="244.43135999999998" viewBox="2.85 -34.3 108.24000000000001 43.65" height="98.56285324711317" data-palette-color="#ffffff"><path d="M13.45-34.3L13.45-8.4 25.9-8.4 26.9 0 2.85 0 2.85-34.3 13.45-34.3ZM42.8-26.05Q48.6-26.05 51.67-23.8 54.75-21.55 54.75-17.95L54.75-17.95 54.75-7.4Q54.75-6.45 55.2-6 55.65-5.55 56.3-5.55L56.3-5.55Q57.25-5.55 58.05-6L58.05-6 58.05-0.65Q56.45 0.5 53 0.5L53 0.5Q49.8 0.5 47.95-0.58 46.1-1.65 45.65-3.55L45.65-3.55Q44.05-1.7 42.12-0.6 40.2 0.5 37.4 0.5L37.4 0.5Q33.4 0.5 30.9-1.05 28.4-2.6 28.4-7.15L28.4-7.15Q28.4-10.6 30.35-12.48 32.3-14.35 35.92-15.08 39.55-15.8 45.15-15.8L45.15-15.8 45.15-17.25Q45.15-18.65 44.22-19.45 43.3-20.25 41.9-20.25L41.9-20.25Q40.75-20.25 39.72-19.58 38.7-18.9 38.7-17.9L38.7-17.9 38.7-17.7 29.2-17.7Q29.15-17.85 29.15-18.4L29.15-18.4Q29.15-20.55 30.62-22.28 32.1-24 34.82-25.03 37.55-26.05 41.15-26.05L41.15-26.05 42.8-26.05ZM45.15-11.25Q41.85-11.25 40.3-10.38 38.75-9.5 38.75-7.95L38.75-7.95Q38.75-5.55 41.75-5.55L41.75-5.55Q43.15-5.55 44.15-6.53 45.15-7.5 45.15-9.05L45.15-9.05 45.15-11.25ZM60.05-25.55L81.7-25.55 81.7-22.55 72.25-6.2 82.1-6.2 82.1 0 59.5 0 59.5-3.15 68.9-19.35 60.05-19.35 60.05-25.55ZM111.09-25.55L102.49-1.8Q100.64 3.3 97.44 6.33 94.24 9.35 89.79 9.35L89.79 9.35Q86.39 9.35 84.84 8.6L84.84 8.6 84.84 2.15Q85.44 2.45 86.52 2.65 87.59 2.85 88.59 2.85L88.59 2.85Q90.59 2.85 91.37 1.83 92.14 0.8 92.49-0.75L92.49-0.75 83.09-25.55 93.64-25.55 97.59-12.3 97.99-12.3 101.34-25.55 111.09-25.55Z" opacity="1" transform="matrix(1,0,0,1,0,0)" fill="#ffffff" class="wordmark-text-0" data-fill-palette-color="primary" id="text-0"></path></svg></g></svg></g></svg></g></svg></g></svg></g></svg></g></svg></g><g><path d="M0 123.6c0-68.262 55.338-123.6 123.6-123.6 46.114 0 86.329 25.253 107.571 62.684h-5.142c-20.786-34.877-58.879-58.24-102.429-58.24-65.808 0-119.156 53.348-119.156 119.156 0 65.808 53.348 119.156 119.156 119.156 43.55 0 81.643-23.363 102.429-58.24l5.142 0c-21.242 37.431-61.458 62.684-107.571 62.684-68.262 0-123.6-55.338-123.6-123.6z" fill="#ffffff" stroke="transparent" data-fill-palette-color="tertiary"></path></g></svg></g><defs></defs></svg><rect width="395.52" height="247.2" fill="none" stroke="none" visibility="hidden"></rect></g></svg></g></svg>