<svg xmlns="http://www.w3.org/2000/svg" xml:space="preserve" id="OBJECTS" x="0" y="0" style="enable-background:new 0 0 500 500" version="1.1" viewBox="0 0 500 500"><style>.st2{opacity:.87;fill:#515159}.st3{fill:#afafaf}.st5{fill:#8b8b8c}.st6{fill:#5a5a63}.st7{fill:#edb62b}.st8{fill:#2f2f35}.st9{fill:#a87d1d}.st12{fill:#fff}.st13{fill:#ff7e6e}.st14{fill:#e8e8e8}.st16{opacity:.52;fill:#fff6e7}.st17{opacity:.28;fill:#4c2a29}.st19{fill:#c64f4f}.st20{fill:#803d3d}.st21,.st22{fill:none;stroke:#2f2f35;stroke-width:1.3362;stroke-linecap:round;stroke-miterlimit:10}.st22{stroke-width:2.6723}.st24{opacity:.67;fill:#a87d1d}.st29{fill:none;stroke:#4c2a29;stroke-width:1.3362;stroke-linecap:round;stroke-miterlimit:10}.st36{fill:#666}.st37{fill:#9e9e9e}.st38{fill:#3b2dea}.st40{opacity:.42;fill:#fff}.st41{fill:#271ea5}</style><path d="M194.58 325.73c-4.07-.02-8.14-.18-12.22-.51-44.67-3.66-96.42-24.99-118.67-63.83-19.45-33.95-27.08-77.91-18.23-115.78 8.32-35.6 34.13-64.43 70.26-75.38 40.64-12.31 85.55 2.65 125.53-14.17 58.2-24.47 131.35-5.04 172.14 41.53 36.16 41.29 44.92 107.86 33.56 159.44-5.74 26.07-20.83 51.18-44.85 64.3-19.11 10.44-42.22 12.5-64.08 9.78-17.57-2.19-33.75-7.92-50.66-12.64-13.55-3.78-24.67-1.81-38.54.93-17.83 3.54-35.98 6.41-54.24 6.33z" style="opacity:.41;fill:#afafaf"/><path d="M204.55 300.82c-3.29-.01-6.59-.15-9.88-.42-36.15-2.96-78.02-20.22-96.02-51.65-15.73-27.47-21.91-63.04-14.75-93.69 6.74-28.8 27.61-52.13 56.85-60.99 32.88-9.96 69.22 2.14 101.58-11.46 47.09-19.8 106.28-4.08 139.29 33.6 29.26 33.41 36.34 87.28 27.16 129.02-4.64 21.09-16.85 41.41-36.29 52.03-15.47 8.45-34.16 10.12-51.85 7.91-14.22-1.77-27.31-6.41-40.99-10.23-10.97-3.06-19.96-1.47-31.19.75-14.45 2.87-29.14 5.19-43.91 5.13z" style="fill:none;stroke:#fff;stroke-width:1.9456;stroke-miterlimit:10;stroke-dasharray:3.8511,3.8511"/><ellipse cx="415.72" cy="438.8" class="st2" rx="17.59" ry="1.34"/><path d="M417.95 388.22s-15.06-10.23-5.39-25.11c9.67-14.87 7.26-20.04 3.87-24.23 8.22 9.36 6.42 20.02 1.52 26.78-4.9 6.76-5.68 15.97 0 22.56z" class="st3"/><path d="M430.24 400.92H401.2l2.83 36.76h23.38z" style="fill:#fefefe"/><path d="M398.13 399.04h35.18v4.31h-35.18z" class="st5"/><path d="M426.4 395.16h-21.37c-2.12 0-3.84 1.72-3.84 3.84v.04h29.04V399a3.826 3.826 0 0 0-3.83-3.84z" class="st6"/><path d="m428.63 421.86.68-8.9h-27.18l.68 8.9z" class="st7"/><path d="M430.24 399.04V399c0-2.12-1.72-3.84-3.84-3.84h-10.58c2.12 0 3.84 1.72 3.84 3.84v.04h3.07v4.31h-3.26l-2.65 34.34h10.58l2.65-34.34h3.26v-4.31h-3.07z" class="st3"/><path d="M274.31 170.39s6.09-19.09-2.81-24.63c-5.65-2.91-8.74.71-8.74.71s-2.66-13.5-20.97-9.04c-11.86 2.89-15.61-3.23-15.61-3.23s-.11 16.92 8.06 21.95c5.92 5.07 3.65 18.79 3.65 18.79l36.42-4.55z" class="st8"/><path d="M328.27 419.84s32.98.99 42.18 9.49c9.68 8.93 19.83 22.89-21.83 22.62-41.67-.27-78.6-11.74-113.55-8.1-34.95 3.64-63.62 9.91-71.98 8.52-8.35-1.39 51.19-29.92 51.19-29.92l110.55 4.06 3.44-6.67z" class="st2"/><path d="m297.43 345.67-41.57-4.18-41.57 4.18s-2.47 19.64-10.5 30.12l52.07 18.7 52.07-18.7c-8.03-10.48-10.5-30.12-10.5-30.12z" class="st9"/><path d="m254.22 393.9 1.64.59 1.64-.59c9.58-22.04 7.29-46.76 6.72-51.57l-8.36-.84-10.7 1.07c-.21 5.29-.57 29.44 9.06 51.34z" class="st9"/><path d="M214.05 347.27s43.74 19.29 85.99 10.91c-1.9-6.86-2.61-12.51-2.61-12.51l-41.57-4.18-33.39 3.35-8.42 2.43z" style="fill:#895436"/><path d="M234.24 156.15c5.92 5.07 3.65 18.79 3.65 18.79l7.74-.97c7.95-7.07 16.92-16.03 15.62-19.4-2.28-5.91-8.88-11.81-21.04-12.49-12.16-.67-14.03-7.88-14.03-7.88s-.11 16.92 8.06 21.95z" style="fill:#515159"/><path d="m254.35 204.06-34.37 12.53-5.69 129.08s12.15 5.69 41.57 5.69v-145.3l-1.51-2zM257.37 204.06l34.37 12.53 5.69 129.08s-12.15 5.69-41.57 5.69v-145.3l1.51-2z" class="st12"/><path d="m219.98 216.58-.16.06a37.24 37.24 0 0 0-22.03 21.19l-36.89 89.29 31.37 3.74 26.56-65.08 1.15-49.2zM291.74 216.58l.16.06a37.24 37.24 0 0 1 22.03 21.19l36.89 89.29-31.37 3.74-26.56-65.08-1.15-49.2z" class="st13"/><path d="m328.25 272.5-14.32-34.67a37.213 37.213 0 0 0-22.03-21.19l-.16-.06 1.16 49.19 7.52 18.44c10.04-8.41 20.12-11.14 27.83-11.71zM183.46 272.5l14.32-34.67a37.213 37.213 0 0 1 22.03-21.19l.16-.06-1.16 49.19-7.52 18.44c-10.03-8.41-20.11-11.14-27.83-11.71z" class="st14"/><path d="M293.98 267.48s-.93-1.3-2.24-3.75l1.16 2.05s-13.08 72.58-48.03 85.3c3.36.18 7.01.29 10.99.29 29.42 0 41.57-5.69 41.57-5.69l-3.45-78.2z" style="fill:#d3d3d3"/><path d="M203.79 257.97c8.87-24.87 9.36-24.68 28.72-29.23 19.36-4.56 15.56-22.39 15.56-22.39l-18.05 6.58-2.79 1.02-7.24 2.64-.16.06a37.24 37.24 0 0 0-22.03 21.19l-35.36 85.59c14.92-11 33.8-44.28 41.35-65.46z" class="st16"/><path d="M307.93 257.97c-8.87-24.87-9.36-24.68-28.72-29.23-19.36-4.56-15.56-22.39-15.56-22.39l18.05 6.58 2.79 1.02 7.24 2.64.16.06a37.24 37.24 0 0 1 22.03 21.19l35.36 85.59c-14.92-11-33.8-44.28-41.35-65.46z" class="st17"/><path d="M255.95 219.98h-.19c-5.08 0-9.2-4.12-9.2-9.2v-21.96h18.58v21.96c.01 5.08-4.11 9.2-9.19 9.2z" class="st13"/><path d="M265 205.76c.05 0 .1-.01.15-.01v-16.93h-8.67l-9.91 3.58s3.68 13.36 18.43 13.36z" style="fill:#4c2a29"/><path d="M277.47 175.62c0 3.3-2.67 5.97-5.97 5.97s-5.97-2.67-5.97-5.97 2.67-5.97 5.97-5.97c3.3.01 5.97 2.68 5.97 5.97z" class="st19"/><path d="M272.67 181.47c.86-3.46 1.37-7.88 1.64-11.09-.84-.45-1.79-.73-2.81-.73-3.3 0-5.97 2.67-5.97 5.97s2.67 5.97 5.97 5.97c.4 0 .79-.04 1.17-.12z" class="st20"/><path d="M234.24 175.62c0 3.3 2.67 5.97 5.97 5.97s5.97-2.67 5.97-5.97-2.67-5.97-5.97-5.97c-3.3.01-5.97 2.68-5.97 5.97z" class="st19"/><path d="M239.05 181.47c-.86-3.46-1.37-7.88-1.64-11.09.84-.45 1.79-.73 2.81-.73 3.3 0 5.97 2.67 5.97 5.97s-2.67 5.97-5.97 5.97c-.41 0-.8-.04-1.17-.12z" class="st20"/><path d="M266.36 154.75h-21l-5.2 11.36.87 11.24c.47 6 4.34 16.35 9.79 18.9 1.62.76 3.34 1.26 5.03 1.26 1.7 0 3.41-.5 5.03-1.26 5.45-2.54 9.33-12.9 9.79-18.9l.87-11.24-5.18-11.36z" class="st13"/><path d="M261.25 169.01s3.52.99 7.51 0" class="st21"/><path d="M260.11 162.55s5.15-.86 8.24.93" class="st22"/><path d="M250.47 169.01s-3.52.99-7.51 0" class="st21"/><path d="M251.61 162.55s-5.15-.86-8.24.93" class="st22"/><path d="M247.49 178.81c-.69-11.36-2.13-24.05-2.13-24.05l-5.2 11.36.28 3.57c-.08 0-.15-.02-.23-.02-3.3 0-5.97 2.67-5.97 5.97s2.67 5.97 5.97 5.97c.52 0 1.02-.09 1.5-.21 1.41 5.8 4.75 12.84 9.11 14.87 1.62.76 3.34 1.26 5.03 1.26.01-.02-7.67-7.37-8.36-18.72z" class="st16"/><path d="m291.74 396.16-118.77-36.03c-15.77-4.78-32.36 4.5-36.52 20.44l-.16.6c-4.29 16.43 6.36 33.02 23.08 35.95 43.91 7.68 123.51 20.73 165.4 22.33l17.66 11.77a6.89 6.89 0 0 0 8.54-.71l.09-.09c2.78-2.6 2.92-6.97.32-9.75l-2.75-2.94s-2.45-11.96-14.58-17.08c-12.12-5.13-13.26-17.65-16.11-24.49-2.86-6.83-21.08-10.25-26.2 0z" style="fill:#8c4242"/><path d="M136.44 380.57c4.17-15.94 20.75-25.23 36.52-20.44l40.28 12.22c-6.07 7.57-14.07 22.93-14.31 51.45-14.71-2.39-28.31-4.71-39.56-6.68-16.72-2.92-27.38-19.52-23.08-35.95l.15-.6z" class="st7"/><path d="M173.91 405.62c0 4.84-1.16 9.41-3.21 13.46-3.98-.68-7.78-1.34-11.33-1.96-16.72-2.92-27.38-19.52-23.08-35.95l.16-.6c.37-1.43.85-2.81 1.42-4.13 2.01-.43 4.08-.65 6.22-.65 16.46 0 29.82 13.35 29.82 29.83z" class="st24"/><path d="M297.43 412.68s-1.71 9.95-18.22 6.4" style="fill:none;stroke:#7b3c38;stroke-width:1.139;stroke-miterlimit:10"/><path d="M307.93 408.12s-25.3-1.14-78.84-10.69c-43.37-7.74-56.09-29.93-59.36-38.08 1.08.2 2.16.45 3.23.78l118.77 36.03c5.13-10.25 23.35-6.83 26.2 0 2.85 6.83 3.99 19.36 16.11 24.49 12.12 5.13 14.58 17.08 14.58 17.08s-12.47-7.97-20.35-9.68-20.34-19.93-20.34-19.93z" class="st17"/><path d="M313.41 438.8s21.81 20.87 40.4 12.28c3.09-1.43 4.06-5.38 2.04-8.12-15.66-21.27-35.41-44.44-42.94-53.15a7.376 7.376 0 0 0-7.63-2.26l-21.42 6.22 29.55 45.03z" class="st8"/><path d="m283.86 393.77-20.51-6.22 15.54 47.82 34.52 3.43z" style="fill:#a5a5a5"/><path d="m219.98 396.16 118.77-36.03c15.77-4.78 32.36 4.5 36.52 20.44l.16.6c4.29 16.43-6.36 33.02-23.08 35.95-43.91 7.68-123.51 20.73-165.4 22.33l-17.66 11.77a6.89 6.89 0 0 1-8.54-.71l-.09-.09c-2.78-2.6-2.92-6.97-.32-9.75l2.75-2.94s2.46-11.96 14.58-17.08c12.12-5.13 13.26-17.65 16.11-24.49 2.85-6.83 21.08-10.25 26.2 0z" class="st13"/><path d="M375.27 380.57c-4.17-15.94-20.75-25.23-36.52-20.44l-40.28 12.22c6.07 7.57 14.07 22.93 14.31 51.45 14.71-2.39 28.31-4.71 39.56-6.68 16.73-2.92 27.38-19.52 23.08-35.95l-.15-.6z" class="st7"/><path d="M337.81 405.62c0 4.84 1.16 9.41 3.21 13.46 3.98-.68 7.78-1.34 11.33-1.96 16.73-2.92 27.38-19.52 23.08-35.95l-.16-.6a28.31 28.31 0 0 0-1.42-4.13 29.63 29.63 0 0 0-6.22-.65c-16.47 0-29.82 13.35-29.82 29.83z" class="st24"/><path d="M203.79 408.12s25.3-1.14 78.83-10.69c43.37-7.74 56.09-29.93 59.36-38.08-1.08.2-2.16.45-3.23.78l-118.77 36.03c-5.13-10.25-23.35-6.83-26.2 0-2.85 6.83-3.99 19.36-16.11 24.49-12.12 5.13-14.58 17.08-14.58 17.08s12.47-7.97 20.35-9.68c7.88-1.71 20.35-19.93 20.35-19.93z" class="st17"/><path d="m177.67 420.65-17.8-3.3c-16.11-2.57-27.03-17.81-24.28-33.89l.11-.63c3-17.54 20.8-28.38 37.76-23.01l33.62 10.66" style="opacity:.57;fill:none;stroke:#fff;stroke-width:1.1139;stroke-miterlimit:10"/><path d="M249.75 178.62c-.64 0-1.02.74-.62 1.25 1.78 2.29 4.14 3.69 6.74 3.69 2.59 0 4.96-1.4 6.74-3.69.39-.5.02-1.25-.62-1.25h-12.24z" class="st12"/><path d="M257.62 168.76v6.18s-1.42-.8-3.4 0" style="fill:none;stroke:#2f2f35;stroke-width:.8212;stroke-linecap:round;stroke-miterlimit:10"/><path d="M261.25 146.47h1.52v9.67h-1.52zM350.82 327.12l.06.17c3.56 9.86-.7 20.83-9.99 25.69l-63.42 33.25-.31-.81c-5.59-14.44.26-30.78 13.73-38.41l28.56-16.16 31.37-3.73z" class="st13"/><path d="M337.43 347.49c0 2.34.58 4.54 1.61 6.48l1.86-.98c7.32-3.84 11.5-11.47 11.2-19.36-.26-.01-.51-.04-.77-.04-7.68-.01-13.9 6.22-13.9 13.9z" class="st17"/><path d="m319.45 330.86 17.98-10.2" class="st29"/><path d="m161.08 327.12-.06.17c-3.56 9.86.7 20.83 9.99 25.69l63.42 33.25.31-.81c5.59-14.44-.26-30.78-13.73-38.41l-28.56-16.16-31.37-3.73z" class="st13"/><path d="M174.47 347.49c0 2.34-.58 4.54-1.61 6.48l-1.86-.98c-7.32-3.84-11.5-11.47-11.2-19.36.26-.01.51-.04.77-.04 7.68-.01 13.9 6.22 13.9 13.9z" class="st17"/><path d="m192.45 330.86-17.98-10.2M227.39 382.55s3.2-17.56-7.22-23.2M284.33 382.55s-3.2-17.56 7.22-23.2" class="st29"/><path d="M198.31 438.8s-21.81 20.87-40.4 12.28c-3.09-1.43-4.06-5.38-2.04-8.12 15.66-21.27 35.41-44.44 42.94-53.15a7.376 7.376 0 0 1 7.63-2.26l21.42 6.22-29.55 45.03z" class="st8"/><path d="m227.85 393.77 20.52-6.22-15.54 47.82-34.52 3.43z" style="fill:#ececec"/><path d="M219.32 406.77c6.09-.65 13.99-1.6 23.77-2.98l5.28-16.25-20.51 6.22-8.54 13.01z" class="st17"/><path d="m204.85 424.28-11.9 18.14a3.5 3.5 0 0 1-3.4 1.55l-.08-.01c-2.58-.35-3.89-3.29-2.43-5.44l12.17-17.97c.78-1.15 2.19-1.7 3.54-1.38l.07.02c2.25.52 3.3 3.14 2.03 5.09z" style="fill:#fff6e7"/><path d="M254.22 319.45h-72.83l17.96 63.96H309.1l17.95-63.96z" class="st3"/><path d="M199.35 383.41H309.1v9.32H199.35z" class="st5"/><ellipse cx="254.35" cy="356.47" class="st6" rx="17.81" ry="9.12"/><path d="M181.39 315.2h145.66v4.24H181.39zM205.43 386.08h10.99v3.75h-10.99zM221.29 386.08h10.99v3.75h-10.99z" class="st6"/><path d="M309.1 388.07h-66.8" style="fill:none;stroke:#0f1201;stroke-miterlimit:10"/><path d="m181.39 319.45 17.96 63.96h39.09c23.21-26.91 37.31-63.96 37.31-63.96l-.05-4.24h-94.31v4.24z" style="opacity:.54;fill:#fff"/><path d="M181.39 319.45h145.66" style="opacity:.57;fill:none;stroke:#0f1201;stroke-miterlimit:10"/><ellipse cx="105.72" cy="438.8" class="st2" rx="26.41" ry="1.34"/><path d="m109.58 425.65 1.73-1.89-.87.94.87-.94c-.21-.2-21.06-21.34 4.12-116.56l-2.48-.65c-25.69 97.22-4.29 118.25-3.37 119.1z" class="st6"/><path d="M101.82 308.85c9.54 8.67 7.86 18.91 7.86 18.91s-9.55-4.07-11.77-16.77c-.38-2.22 2.24-3.66 3.91-2.14zM125.68 314.97c-12.53 3.01-15.99 12.79-15.99 12.79s10.33 1.02 18.38-9.04c1.41-1.76-.19-4.28-2.39-3.75zM95.28 333.75c10.36 7.66 9.73 18.03 9.73 18.03s-9.91-3.09-13.39-15.5c-.61-2.18 1.85-3.87 3.66-2.53zM119.64 337.44c-12.16 4.25-14.63 14.34-14.63 14.34s10.38-.02 17.38-10.84c1.23-1.9-.62-4.24-2.75-3.5zM91.14 355.59c10.9 6.88 11.03 17.26 11.03 17.26s-10.11-2.35-14.5-14.47c-.76-2.12 1.56-3.99 3.47-2.79zM115.7 357.47c-11.82 5.14-13.53 15.38-13.53 15.38s10.35-.79 16.53-12.09c1.09-1.99-.92-4.19-3-3.29zM122.25 289.77c.22 12.88-8.4 18.68-8.4 18.68s-3.57-9.75 4.16-20.06c1.36-1.8 4.2-.88 4.24 1.38z" class="st6"/><path d="M90.88 383.43h27.69v54.78H90.88z" class="st7"/><path d="M107.5 383.43h11.06v54.78H107.5z" class="st24"/><path d="m130.72 122.18-9.96 2.48c-1.45.36-2.91-.52-3.27-1.97l-.96-3.86 15.2-3.78.96 3.86a2.7 2.7 0 0 1-1.97 3.27z" class="st9"/><path d="M167.74 110.29 81.68 131.7c-1.49.37-3.01-.54-3.38-2.03L64.11 72.59c-.37-1.49.54-3.01 2.03-3.38l86.07-21.41c1.49-.37 3.01.54 3.38 2.03l14.19 57.07c.37 1.51-.54 3.02-2.04 3.39z" class="st9"/><path d="m165.19 100.43-2.4 6.9-76.36 18.99-6.78-4.61-14.06-56.55 85.54-21.28z" class="st7"/><path d="m65.577 65.156 41.678-10.364 14.06 56.545-41.678 10.364z" class="st12"/><path d="m70.44 68.149 34.246-8.516.492 1.98-34.246 8.515zM72.017 74.472l34.246-8.519.492 1.98-34.245 8.519zM73.588 80.798l34.246-8.516.492 1.98-34.245 8.515zM75.159 87.128l34.245-8.515.492 1.98-34.245 8.515zM76.738 93.452l34.245-8.52.493 1.98-34.246 8.52zM78.31 99.787l34.244-8.515.493 1.98-34.246 8.515zM79.877 106.108l34.246-8.515.492 1.98-34.246 8.515zM81.458 112.431l34.245-8.519.493 1.98-34.246 8.519z" class="st3"/><path d="m109.45 54.236 41.679-10.368 14.066 56.546-41.678 10.368z" class="st12"/><path d="m113.995 57.31 34.245-8.518.493 1.98-34.246 8.518zM115.557 63.643l34.246-8.516.492 1.98-34.245 8.515zM117.138 69.97l34.245-8.515.492 1.98-34.245 8.515zM118.715 76.29l34.245-8.519.493 1.98-34.246 8.519zM120.278 82.632l34.246-8.515.492 1.98-34.246 8.515zM121.856 88.95l34.245-8.515.493 1.98-34.246 8.515zM123.435 95.27l34.246-8.52.492 1.98-34.245 8.519zM125.006 101.61l34.246-8.516.492 1.98-34.245 8.515z" class="st3"/><path d="m128.11 118.87-6.59 1.64a2.7 2.7 0 0 1-3.27-1.97l-.6-2.42 11.83-2.94.6 2.42c.36 1.45-.52 2.91-1.97 3.27zM274.47 37.56c-3.42-3.25-7.74-5.47-12.19-6.95l-.2-.06a23.79 23.79 0 0 0-12.31 0l-.2.06c-4.45 1.48-8.77 3.7-12.19 6.95-10.18 9.68-8.53 27.25 1.39 36.52 2.78 2.6 4 5.96 4.85 9.66.26 1.11 1.73 12.74 1.22 12.74h22.17c-.51 0 .96-11.63 1.22-12.74.85-3.7 2.07-7.06 4.85-9.66 9.91-9.28 11.57-26.84 1.39-36.52z" class="st7"/><path d="M251.94 83.73c-.85-3.7-2.07-7.06-4.85-9.66-9.91-9.27-11.57-26.84-1.39-36.52 3.42-3.25 7.74-5.47 12.19-6.95l.2-.06c.66-.18 1.33-.31 2-.43-3.42-.61-6.94-.47-10.31.43l-.2.06c-4.45 1.48-8.77 3.7-12.19 6.95-10.18 9.68-8.53 27.25 1.39 36.52 2.78 2.6 4 5.96 4.85 9.66.26 1.11 1.73 12.74 1.22 12.74h8.32c.5 0-.98-11.62-1.23-12.74z" class="st16"/><path d="M255.92 96.47V69.36l4.77-2.75c1.58-.91 1.26-3.27-.5-3.74l-8.68-2.29c-1.48-.39-1.65-2.43-.25-3.05l4.66-2.1v-9.2" style="fill:none;stroke:#fefefe;stroke-width:2.2387;stroke-linecap:round;stroke-miterlimit:10"/><path d="M269.21 100.2c0 .82-.67 1.49-1.49 1.49h-24.38c-.82 0-1.49-.67-1.49-1.49s.67-1.49 1.49-1.49h24.38c.82 0 1.49.67 1.49 1.49zM269.21 104.68c0 .82-.67 1.49-1.49 1.49h-24.38c-.82 0-1.49-.67-1.49-1.49s.67-1.49 1.49-1.49h24.38c.82 0 1.49.67 1.49 1.49zM269.21 109.16c0 .82-.67 1.49-1.49 1.49h-24.38c-.82 0-1.49-.67-1.49-1.49s.67-1.49 1.49-1.49h24.38c.82-.01 1.49.66 1.49 1.49zM255.53 121.1c4.81 0 8.71-3.9 8.71-8.71h-17.41c0 4.81 3.89 8.71 8.7 8.71z" class="st8"/><path d="M358.67 126.82v-7.01h-3.1c-.59-3.33-1.95-6.38-3.89-8.98l2.46-2.46-4.96-4.96-2.55 2.55a21.115 21.115 0 0 0-8.91-3.45v-3.66h-7.01v3.8c-3.13.59-6.01 1.87-8.5 3.68l-2.48-2.48-4.96 4.96 2.51 2.51a20.936 20.936 0 0 0-3.59 8.95h-3.48v7.01h3.56c.57 3.21 1.87 6.17 3.71 8.7l-2.74 2.74 4.96 4.96 2.77-2.77c2.54 1.79 5.49 3.02 8.69 3.55v3.78h7.01v-3.78c3.18-.53 6.12-1.75 8.66-3.53l2.32 2.32 4.96-4.96-2.28-2.28c1.94-2.66 3.27-5.78 3.8-9.18h3.04zm-24 8.62c-6.58 0-11.92-5.34-11.92-11.92s5.34-11.92 11.92-11.92 11.92 5.34 11.92 11.92-5.34 11.92-11.92 11.92z" class="st36"/><path d="M386.61 153.4v-4.04h-1.79c-.34-1.92-1.12-3.68-2.24-5.18l1.42-1.42-2.86-2.86-1.47 1.47a12.128 12.128 0 0 0-5.14-1.99v-2.11h-4.04v2.19c-1.81.34-3.47 1.08-4.9 2.12l-1.43-1.43-2.86 2.86 1.45 1.45a12.143 12.143 0 0 0-2.07 5.16h-2.01v4.04h2.05c.33 1.85 1.08 3.56 2.14 5.02l-1.58 1.58 2.86 2.86 1.6-1.6c1.47 1.03 3.17 1.74 5.01 2.05v2.18h4.04v-2.18c1.84-.31 3.53-1.01 5-2.04l1.34 1.34 2.86-2.86-1.31-1.31a12.11 12.11 0 0 0 2.19-5.3h1.74zm-13.84 4.97a6.88 6.88 0 1 1 0-13.76 6.88 6.88 0 1 1 0 13.76z" class="st37"/><path d="M450.31 101.04V86.65h-6.36c-1.2-6.84-4-13.11-7.99-18.45l5.05-5.05-10.18-10.18-5.23 5.23c-5.36-3.66-11.59-6.11-18.3-7.08V43.6h-14.39v7.8c-6.43 1.21-12.35 3.85-17.45 7.55l-5.09-5.09-10.18 10.18 5.16 5.16a43.33 43.33 0 0 0-7.38 18.37h-7.15v14.39h7.3c1.18 6.6 3.84 12.66 7.62 17.87l-5.62 5.62 10.18 10.18 5.69-5.69a43.3 43.3 0 0 0 17.84 7.29V145h14.39v-7.77c6.53-1.09 12.58-3.6 17.78-7.25l4.76 4.76 10.18-10.18-4.68-4.68a43.317 43.317 0 0 0 7.8-18.85h6.25zm-49.28 17.69c-13.52 0-24.48-10.96-24.48-24.48s10.96-24.48 24.48-24.48 24.48 10.96 24.48 24.48c.01 13.52-10.96 24.48-24.48 24.48z" class="st5"/><circle cx="400.57" cy="94.31" r="14.37" class="st36"/><path d="M120.72 167.8c-30.87 1.87-54.87 20.37-53.6 41.32 1.27 20.95 27.33 36.41 58.2 34.54h.07c3.04-.19 5.16-3.12 4.41-6.07-.37-1.43-.57-2.94-.6-4.49-.16-9.99 7.57-18.56 17.51-19.46 7.22-.65 13.81 2.74 17.62 8.26 1.88 2.72 5.87 2.92 7.9.3 4.64-5.97 7.11-12.77 6.68-19.86-1.27-20.95-27.32-36.41-58.19-34.54z" class="st6"/><path d="M120.51 164.41c-30.87 1.87-54.87 20.37-53.6 41.32 1.27 20.95 27.33 36.41 58.2 34.54h.07c3.04-.19 5.16-3.12 4.41-6.07-.37-1.43-.57-2.94-.59-4.49-.16-9.99 7.57-18.56 17.51-19.46 7.22-.65 13.81 2.74 17.62 8.26 1.88 2.72 5.87 2.92 7.9.3 4.64-5.97 7.11-12.77 6.68-19.86-1.27-20.95-27.33-36.41-58.2-34.54z" class="st5"/><path d="M109.61 223.8c.23 3.72-2.61 6.92-6.33 7.15-3.72.23-6.92-2.61-7.15-6.33-.23-3.72 2.61-6.92 6.33-7.15 3.72-.23 6.92 2.6 7.15 6.33zM91.22 211.02c.23 3.72-2.61 6.92-6.33 7.15-3.72.23-6.92-2.61-7.15-6.33s2.61-6.92 6.33-7.15c3.72-.23 6.92 2.61 7.15 6.33zM96.62 188.67c.23 3.72-2.61 6.92-6.33 7.15-3.72.23-6.92-2.61-7.15-6.33s2.61-6.92 6.33-7.15c3.73-.22 6.93 2.61 7.15 6.33zM119.41 176.6c.23 3.72-2.61 6.92-6.33 7.15-3.72.23-6.92-2.61-7.15-6.33-.23-3.72 2.61-6.92 6.33-7.15 3.73-.23 6.93 2.6 7.15 6.33zM145.09 176.93c.23 3.72-2.61 6.92-6.33 7.15s-6.92-2.61-7.15-6.33c-.23-3.72 2.61-6.92 6.33-7.15 3.72-.23 6.92 2.6 7.15 6.33zM166.75 189.14c.23 3.72-2.61 6.92-6.33 7.15-3.72.23-6.92-2.61-7.15-6.33-.23-3.72 2.61-6.92 6.33-7.15a6.743 6.743 0 0 1 7.15 6.33z" class="st38"/><path d="m150.55 168.41-6.36 13.3c-.84-.04-1.65.44-1.98 1.26l-.02.04c-.42 1.04.08 2.23 1.12 2.65l.6.24c-.12-.04-.72-.11-2 1.75-.08.11-.16.23-.24.36-.01.01-.02.03-.02.04-.08.12-.16.25-.24.38-.02.03-.03.05-.05.08-.08.12-.15.26-.23.39-.02.04-.05.08-.07.12-.07.13-.15.27-.23.41-.03.06-.06.11-.09.17-.07.14-.15.28-.23.43-.04.07-.08.15-.12.22-.07.14-.15.29-.23.44-.05.09-.09.18-.14.28-.07.15-.15.3-.22.46-.05.11-.11.22-.16.33-.07.16-.15.31-.23.48-.06.12-.12.25-.18.38-.08.16-.15.33-.23.5-.07.15-.13.3-.2.45-.07.17-.15.34-.22.51-.07.17-.15.35-.22.52-.07.18-.15.35-.22.53-.08.19-.16.39-.24.59-.07.18-.15.36-.22.55-.09.22-.18.45-.27.68-.07.19-.15.37-.22.56-.1.26-.21.53-.31.8l-.2.52c-.12.32-.25.66-.38 1-.05.14-.1.28-.16.43-.18.49-.37 1-.56 1.53-.51 1.42-1.1 3.09-1.76 4.94-.08.21-.15.42-.23.64-.1.28-.2.57-.3.86-.09.24-.17.47-.25.72-.13.38-.27.77-.41 1.16-.06.18-.12.35-.19.53-.14.39-.28.79-.42 1.18-.07.2-.14.4-.21.61-.13.37-.27.76-.4 1.14-.08.24-.16.47-.25.71-.16.44-.31.89-.47 1.35l-.18.51c-.16.46-.33.93-.49 1.4l-.21.6c-.15.44-.31.88-.46 1.33-.08.23-.16.45-.24.68-.16.47-.33.95-.5 1.43-.07.21-.14.41-.21.62-.16.47-.33.95-.49 1.42-.08.24-.16.47-.25.71l-.45 1.29c-.11.31-.21.61-.32.92-.13.37-.26.74-.39 1.12-.12.35-.24.71-.37 1.06-.14.4-.27.8-.41 1.2-.07.21-.14.42-.22.63-1.12 3.26-2.25 6.56-3.36 9.84.98-.02 1.97-.07 2.96-.13h.07c3.04-.19 5.16-3.12 4.41-6.07-.37-1.43-.57-2.94-.59-4.49-.14-8.74 5.76-16.4 13.9-18.78.9-1.95 1.7-3.7 2.38-5.17 7.16-15.68 5.38-17.09 5.16-17.2l.6.24c1.04.42 2.23-.08 2.65-1.12l.02-.04c.4-.97-.02-2.07-.93-2.55l4.76-13.69a60.26 60.26 0 0 0-6.98-2.98zm-6.62 17.5.17.07-.17-.07z" style="opacity:.68;fill:#2f2f35"/><path d="M95.46 187.64a2.828 2.828 0 0 1-2.65 2.99 2.828 2.828 0 0 1-2.99-2.65 2.828 2.828 0 0 1 2.65-2.99 2.834 2.834 0 0 1 2.99 2.65zM118.26 175.8a2.828 2.828 0 0 1-2.65 2.99 2.828 2.828 0 0 1-2.99-2.65 2.828 2.828 0 0 1 2.65-2.99c1.56-.09 2.9 1.1 2.99 2.65zM142.41 175.2a2.828 2.828 0 0 1-2.65 2.99 2.828 2.828 0 0 1-2.99-2.65 2.828 2.828 0 0 1 2.65-2.99 2.828 2.828 0 0 1 2.99 2.65zM88.37 209.03a2.828 2.828 0 0 1-2.65 2.99c-1.56.09-2.89-1.09-2.99-2.65s1.09-2.89 2.65-2.99c1.56-.09 2.9 1.09 2.99 2.65zM108.38 221.84a2.828 2.828 0 0 1-2.65 2.99 2.828 2.828 0 0 1-2.99-2.65 2.828 2.828 0 0 1 2.65-2.99c1.56-.1 2.9 1.09 2.99 2.65z" class="st40"/><path d="M175.24 164.39s9.21-5.03 9.8-12.81c-.04-4.6-2.03-8.37-2.03-8.37l-1.26 4.74s-.69-7.44-6.01-11.04c-5.31-3.6-4.01-2.59-4.01-2.59s4.46 5.92-.49 15.74 1.3 13.23 1.3 13.23l2.7 1.1z" class="st38"/><path d="M174.67 161.2s-1.67-8.54 2.14-13.13c-4.95 6.27-5.97 11.32-4.73 15.39l2.59-2.26z" class="st41"/><path d="M170.22 162.89a3.496 3.496 0 0 1 4.45-1.69l.03.01.03.01c1.7.69 2.57 2.57 2 4.32l-6.06 18.61-4.56-1.86-4.56-1.86 8.67-17.54z" class="st12"/><path d="m160.85 184.59 7.71 3.14c1.04.42 2.23-.08 2.65-1.12l.02-.04c.42-1.04-.08-2.23-1.12-2.65l-7.71-3.14c-1.04-.42-2.23.08-2.65 1.12l-.02.04c-.42 1.04.08 2.23 1.12 2.65z" style="fill:#ccc"/><path d="m161.47 184.85 3.24 1.32 3.24 1.32s2.46.58-5.13 17.21c-5.64 12.36-20.16 43.35-28.52 59.91-.78 1.55-3.13.59-2.61-1.06 5.58-17.69 16.85-50.01 21.44-62.8 6.17-17.21 8.34-15.9 8.34-15.9z" class="st8"/><path d="M144.19 244.36c-3.61 7.54-7.1 14.7-9.9 20.24-.78 1.55-3.13.59-2.61-1.06 1.87-5.92 4.37-13.49 7.05-21.41l5.46 2.23z" class="st12"/><path d="M143.05 229.5c11.9-14.73 16.37-42.79 16.39-42.91-1.32 1.92-3.36 5.91-6.32 14.16-2.24 6.24-6.08 17.16-10.07 28.75z" style="opacity:.75;fill:#fff"/><path d="m373.44 194.95 2.11 4.28 4.72.68-3.41 3.33.8 4.69-4.22-2.22-4.21 2.22.8-4.69-3.41-3.33 4.72-.68z" class="st37"/><path d="m434.14 188.99 2.95 5.96 6.58.96-4.77 4.64 1.13 6.56-5.89-3.1-5.89 3.1 1.13-6.56-4.77-4.64 6.59-.96z" class="st36"/><path d="m415.72 278.38 1.64 3.33 3.68.53-2.66 2.59.63 3.66-3.29-1.72-3.29 1.72.63-3.66-2.66-2.59 3.68-.53z" class="st37"/><path d="m357.09 255.82 2.95 5.97 6.58.95-4.76 4.65 1.12 6.55-5.89-3.09-5.88 3.09 1.12-6.55-4.76-4.65 6.58-.95z" class="st36"/><circle cx="401.3" cy="239.44" r="32.83" class="st38" transform="rotate(-21.85 401.295 239.435)"/><path d="M392.48 271.06c11.6 3.24 23.47-.18 31.57-7.96a32.738 32.738 0 0 1-17.29-.09c-17.46-4.87-27.67-22.98-22.8-40.44a32.642 32.642 0 0 1 8.87-14.84c-10.84 2.91-19.92 11.3-23.15 22.89-4.87 17.46 5.34 35.57 22.8 40.44z" class="st41" style="opacity:.67"/><path d="M410.13 207.82c-1.64-.46-3.28-.78-4.91-.98-.86 3.07-1.32 6.3-1.32 9.64 0 17.09 11.96 31.37 27.97 34.96.4-1.03.76-2.09 1.06-3.18 4.87-17.46-5.34-35.57-22.8-40.44z" style="opacity:.52;fill:#ebe9ff"/><path d="M368.59 236.74c-12.74-4.96-20.66-9.45-19.99-11.84 1.11-3.97 25.55-.61 54.61 7.49 29.05 8.11 51.7 17.89 50.6 21.86-.66 2.38-9.71 2.13-23.1-.2" style="fill:none;stroke:#666;stroke-width:2;stroke-miterlimit:10"/></svg>